<svg width="80" height="29" viewBox="0 0 80 29" fill="none" xmlns="http://www.w3.org/2000/svg">
<g clip-path="url(#clip0_8_10)">
<path d="M18.1586 13.25C18.1586 13.25 17.6476 11.85 19.4672 9.95001C21.2868 8.05001 28.3284 2.15001 32.1545 2.97501C35.9807 3.80001 32.1545 7.82501 32.1545 8.27501C31.9098 9.70866 31.2499 11.0384 30.2571 12.0986C29.2643 13.1589 27.9824 13.9027 26.5711 14.2375C22.9444 15.05 19.2055 14.5 18.1586 13.25Z" fill="#EA2893"/>
<path d="M15.7034 13.25C15.7034 13.25 16.2144 11.85 14.3948 9.95001C12.5752 8.05001 5.49618 2.11251 1.75728 2.93751C-1.98162 3.76251 1.75728 7.78751 1.75728 8.23751C2.00203 9.67117 2.66191 11.0009 3.65473 12.0612C4.64755 13.1214 5.92943 13.8652 7.34071 14.2C10.8677 15.05 14.7188 14.5 15.7034 13.25Z" fill="#00AFF0"/>
<path d="M18.5325 14.5C18.5325 14.5 23.5177 15.8625 25.7735 15.425C28.0293 14.9875 28.3783 19.8625 27.269 21.575C26.1598 23.2875 25.2625 25.825 26.2969 26.9125C27.3314 28 27.0572 28.85 26.783 29C26.0352 29.4 25.3747 27.4 24.3652 25.9625C23.3557 24.525 18.7568 25.2375 18.5325 22.525C18.5076 20.1625 18.5325 14.5 18.5325 14.5Z" fill="#FFF112"/>
<path d="M15.3419 14.5C15.3419 14.5 10.3567 15.8625 8.08848 15.425C5.82022 14.9875 5.49618 19.8125 6.59292 21.525C7.68967 23.2375 8.61193 25.775 7.56504 26.8625C6.51814 27.95 6.81726 28.8 7.07898 28.95C7.82676 29.35 8.49976 27.35 9.4968 25.9125C10.4938 24.475 15.1052 25.1875 15.3419 22.475C15.3669 20.1625 15.3419 14.5 15.3419 14.5Z" fill="#FFF112"/>
<path d="M16.9746 12.425H16.8998C16.067 12.425 15.3918 13.1022 15.3918 13.9375V22.3C15.3918 23.1353 16.067 23.8125 16.8998 23.8125H16.9746C17.8075 23.8125 18.4826 23.1353 18.4826 22.3V13.9375C18.4826 13.1022 17.8075 12.425 16.9746 12.425Z" fill="#B3B3B3"/>
<path d="M16.9372 11.1C17.8114 11.1 18.52 10.3892 18.52 9.51249C18.52 8.63574 17.8114 7.92499 16.9372 7.92499C16.0631 7.92499 15.3544 8.63574 15.3544 9.51249C15.3544 10.3892 16.0631 11.1 16.9372 11.1Z" fill="#B3B3B3"/>
<path d="M21.1123 0V1.25L21.05 1.3375C19.9916 3.09278 18.7096 4.70218 17.2363 6.125V7H16.6132V6.125C15.1569 4.69593 13.8766 3.09704 12.7995 1.3625V1.275V0.025H13.4226V1.125C14.4274 2.75177 15.615 4.25746 16.9621 5.6125C18.2991 4.25198 19.4705 2.73723 20.4518 1.1V0H21.1123Z" fill="#B3B3B3"/>
<path d="M37.3142 5.29999C37.2127 4.93428 37.0294 4.59657 36.7783 4.31249C36.6758 4.20917 36.5532 4.12811 36.4181 4.07435C36.2831 4.02059 36.1384 3.99528 35.9932 3.99999H35.4946V2.48749H41.8757V3.99999H41.2775C41.0699 3.9818 40.861 4.01174 40.6668 4.08749C40.6127 4.11845 40.5686 4.16439 40.5399 4.21982C40.5112 4.27524 40.499 4.33779 40.5048 4.39999C40.4887 4.53284 40.4887 4.66714 40.5048 4.79999L42.1873 10.2625L44.0069 4.78749C44.0069 4.69999 44.0069 4.62499 44.0069 4.56249C44.012 4.50844 44.012 4.45403 44.0069 4.39999C44.0143 4.3376 44.0028 4.27441 43.9739 4.21866C43.945 4.16292 43.9 4.1172 43.8448 4.08749C43.6425 4.00966 43.425 3.97972 43.2092 3.99999H42.6733V2.48749H47.6585V3.99999H47.2722C47.0025 3.98635 46.7357 4.06093 46.5119 4.21249C46.2864 4.43849 46.1306 4.72493 46.0633 5.03749L43.3712 13.175H39.7819L37.3142 5.29999Z" fill="black"/>
<path d="M51.6093 13.175V11.6625H52.0829C52.3346 11.6829 52.5879 11.6575 52.8307 11.5875C52.8762 11.5648 52.9138 11.5287 52.9383 11.484C52.9628 11.4393 52.9731 11.3882 52.9678 11.3375C52.9739 11.2584 52.9739 11.179 52.9678 11.1C52.9736 11.0251 52.9736 10.9499 52.9678 10.875L52.5939 9.73749H49.7274L49.3909 10.7625C49.3421 10.8807 49.3005 11.0018 49.2662 11.125C49.2608 11.2041 49.2608 11.2834 49.2662 11.3625C49.2662 11.45 49.2662 11.525 49.4656 11.575C49.6395 11.6451 49.827 11.6751 50.014 11.6625H50.363V13.175H45.6146V11.6625H46.0134C46.2635 11.6676 46.5054 11.5732 46.6864 11.4C46.9116 11.1649 47.0744 10.877 47.16 10.5625L49.9642 2.48749H53.8152L56.3078 10.525C56.3809 10.8788 56.5392 11.2092 56.769 11.4875C56.9673 11.6201 57.2044 11.6818 57.442 11.6625H58.0028V13.175H51.6093ZM52.0081 8.17499L50.9861 4.97499L50.0763 8.24999L52.0081 8.17499Z" fill="black"/>
<path d="M58.1648 9.23749H59.6978C59.9 9.99857 60.3361 10.6765 60.9441 11.175C61.5322 11.6413 62.2633 11.8887 63.0129 11.875C63.4221 11.8927 63.8268 11.7836 64.172 11.5625C64.305 11.4757 64.4144 11.3572 64.4905 11.2176C64.5667 11.078 64.6071 10.9216 64.6082 10.7625C64.6082 10.2375 63.9726 9.81249 62.7263 9.51249C62.315 9.41249 61.991 9.31249 61.7666 9.23749C61.0064 9.01249 60.4206 8.82499 60.0218 8.66249C59.7082 8.55258 59.4107 8.40125 59.1369 8.21249C58.7402 7.93145 58.4121 7.56392 58.1773 7.13749C57.9506 6.71073 57.8348 6.23351 57.8408 5.74999C57.832 5.24916 57.9402 4.75322 58.1566 4.30178C58.373 3.85034 58.6916 3.45591 59.0871 3.14999C59.9875 2.45493 61.1055 2.10478 62.2402 2.16249C62.8563 2.16353 63.4704 2.23057 64.0723 2.36249C64.6492 2.50057 65.2092 2.70177 65.7423 2.96249L66.029 2.42499H67.5619V6.17499H65.7673C65.6469 5.51443 65.2929 4.91965 64.7702 4.49999C64.2094 4.08213 63.5243 3.86633 62.826 3.88749C62.4116 3.87336 62.0028 3.98677 61.6545 4.21249C61.5169 4.29633 61.4025 4.41355 61.3219 4.55335C61.2413 4.69316 61.1971 4.85105 61.1933 5.01249C61.1933 5.49999 61.7791 5.84999 62.9631 6.09999L63.6361 6.24999C64.8782 6.45425 66.0582 6.93708 67.0883 7.66249C67.4167 7.94289 67.6771 8.29459 67.8499 8.69092C68.0226 9.08724 68.1032 9.51781 68.0854 9.94999C68.0982 10.4497 67.9917 10.9452 67.7749 11.3953C67.5582 11.8453 67.2373 12.2369 66.8391 12.5375C65.8812 13.2187 64.7212 13.5537 63.5488 13.4875C62.9431 13.4835 62.3402 13.4038 61.7542 13.25C61.1478 13.107 60.5617 12.8887 60.0094 12.6L59.623 13.2H58.1648V9.23749Z" fill="black"/>
<path d="M79.9252 2.48749V6.47499H78.2427C78.1669 6.04799 78.0501 5.62937 77.8937 5.22499C77.7965 4.96182 77.6434 4.72297 77.4451 4.52499C77.2416 4.31809 76.9883 4.16739 76.7098 4.08749C76.2422 3.99479 75.7643 3.96536 75.289 3.99999H73.6314V6.92499H74.0427C74.2263 6.94533 74.4121 6.92448 74.5867 6.86395C74.7613 6.80342 74.9203 6.70472 75.0522 6.57499C75.2828 6.20154 75.3836 5.76198 75.3388 5.32499V5.23749H76.6724V10.1125H75.289C75.3298 9.61182 75.2305 9.10967 75.0023 8.66249C74.8707 8.53671 74.7133 8.44132 74.5411 8.38302C74.3688 8.32472 74.186 8.30491 74.0053 8.32499H73.5815V11.6625H75.4635C75.97 11.6837 76.4771 11.6375 76.9715 11.525C77.2258 11.4469 77.4485 11.2892 77.6071 11.075C77.7911 10.7914 77.9259 10.4787 78.0059 10.15C78.1051 9.69324 78.1676 9.22925 78.1929 8.76249H79.9377V13.175H68.721V11.6625H69.2569C69.4964 11.6829 69.7371 11.6398 69.9548 11.5375C70.067 11.45 70.1168 11.2125 70.1168 10.825V4.91249C70.1518 4.64473 70.0993 4.37284 69.9673 4.13749C69.7456 4.01974 69.4937 3.97182 69.2444 3.99999H68.721V2.48749H79.9252Z" fill="black"/>
<path d="M62.0533 24.5C61.8534 25.0753 61.6951 25.6644 61.5797 26.2625V26.45C61.5732 26.5125 61.5516 26.5724 61.5169 26.6247C61.4821 26.6769 61.4353 26.72 61.3803 26.75C61.2044 26.8118 61.0179 26.8373 60.8319 26.825C60.7745 26.8379 60.7149 26.8379 60.6574 26.825C60.6365 26.8176 60.6182 26.8042 60.6049 26.7864C60.5916 26.7686 60.5838 26.7472 60.5826 26.725C60.6374 26.4245 60.7252 26.1311 60.8444 25.85C61.0188 25.375 61.1559 24.95 61.2556 24.6C61.1554 24.6653 61.0462 24.7159 60.9316 24.75L60.5452 24.8125L60.7073 24.25C61.2556 24.25 61.6711 23.5375 61.9536 22.1125V22.0125L62.1031 21.2625C62.2402 20.55 62.5019 20.2 62.8883 20.2C62.9788 20.1822 63.072 20.1822 63.1625 20.2C63.192 20.2123 63.2172 20.2332 63.235 20.2599C63.2527 20.2866 63.2622 20.3179 63.2622 20.35C63.1854 20.668 63.0897 20.981 62.9755 21.2875C62.826 21.75 62.7014 22.1375 62.6141 22.4375C62.8599 21.9785 63.1706 21.5575 63.5364 21.1875C63.7623 20.9625 64.0656 20.8328 64.3839 20.825C64.5167 20.8215 64.6488 20.8464 64.7713 20.8981C64.8938 20.9499 65.0039 21.0272 65.0942 21.125C65.2852 21.3412 65.3837 21.6241 65.3684 21.9125C65.3634 22.2987 65.2605 22.6773 65.0693 23.0125C64.833 23.4192 64.5295 23.7826 64.172 24.0875C64.3046 24.1397 64.4425 24.1775 64.5833 24.2C64.7533 24.2133 64.9242 24.2133 65.0942 24.2L64.9322 24.7625H64.8201C64.61 24.7639 64.4006 24.7387 64.1969 24.6875C64.0083 24.6451 63.8275 24.5734 63.661 24.475C63.5156 24.5402 63.3657 24.5945 63.2123 24.6375C63.0615 24.6759 62.9068 24.6968 62.7512 24.7C62.6398 24.7182 62.5261 24.7182 62.4147 24.7C62.2867 24.648 62.1654 24.5809 62.0533 24.5ZM62.3025 23.85C62.4046 23.7942 62.5135 23.7522 62.6266 23.725H62.9381C63.0291 23.7128 63.1213 23.7128 63.2123 23.725C63.3231 23.7486 63.4315 23.7821 63.5364 23.825C63.806 23.5858 64.0336 23.3026 64.2094 22.9875C64.3565 22.7234 64.4378 22.4275 64.4462 22.125C64.4543 21.979 64.415 21.8342 64.334 21.7125C64.301 21.6602 64.2548 21.6176 64.2001 21.5891C64.1453 21.5605 64.084 21.5471 64.0224 21.55C63.7732 21.55 63.4865 21.7625 63.1749 22.175C62.8091 22.6907 62.5155 23.2543 62.3025 23.85Z" fill="black"/>
<path d="M64.9198 24.7625L65.0818 24.2C65.4787 24.0968 65.819 23.8408 66.029 23.4875C66.4342 22.8133 66.7644 22.0965 67.0136 21.35C66.9524 21.2905 66.9055 21.2178 66.8765 21.1375C66.8563 21.0512 66.8563 20.9613 66.8765 20.875C66.8662 20.6939 66.924 20.5155 67.0385 20.375C67.0868 20.3119 67.1492 20.261 67.2206 20.2263C67.292 20.1916 67.3704 20.174 67.4498 20.175C67.5154 20.1695 67.5814 20.1778 67.6436 20.1993C67.7058 20.2208 67.7629 20.2551 67.8112 20.3C67.8583 20.342 67.8951 20.3942 67.9189 20.4527C67.9427 20.5112 67.9527 20.5745 67.9483 20.6375C67.9604 20.6994 67.9604 20.7631 67.9483 20.825C67.9584 20.8787 67.9584 20.9338 67.9483 20.9875L68.4966 21.3125C68.9079 21.5375 69.1073 21.75 69.1073 21.9625C69.0575 22.3041 68.9478 22.6342 68.7833 22.9375C68.6157 23.2316 68.5018 23.5533 68.4468 23.8875C68.4435 23.9299 68.4524 23.9724 68.4722 24.01C68.4921 24.0476 68.5221 24.0788 68.559 24.1C68.7525 24.1621 68.954 24.1958 69.1572 24.2L68.9952 24.7625H68.8705C68.5006 24.7857 68.1302 24.7259 67.7863 24.5875C67.6831 24.5361 67.5973 24.4553 67.5397 24.3552C67.482 24.2552 67.4551 24.1403 67.4622 24.025C67.4968 23.6659 67.6027 23.3173 67.7738 23C67.9221 22.7262 68.0273 22.4311 68.0854 22.125C68.0595 22.077 68.0187 22.0388 67.9692 22.0163C67.9197 21.9937 67.8642 21.988 67.8112 22C67.7041 21.8987 67.5822 21.8144 67.4498 21.75C67.2054 22.5822 66.8173 23.3649 66.3032 24.0625C66.1313 24.2664 65.9202 24.4335 65.6825 24.5537C65.4448 24.674 65.1854 24.745 64.9198 24.7625Z" fill="black"/>
<path d="M68.8581 24.7625L69.0201 24.2C69.194 24.1854 69.3614 24.1274 69.5072 24.0313C69.6531 23.9353 69.7726 23.8042 69.8551 23.65C70.1642 23.1089 70.387 22.5226 70.5157 21.9125C70.5157 21.7875 70.5157 21.625 70.6154 21.425C70.6432 21.2334 70.7451 21.0604 70.899 20.9435C71.0529 20.8265 71.2465 20.775 71.4379 20.8C71.5203 20.7841 71.6048 20.7841 71.6872 20.8C71.7144 20.8142 71.737 20.8358 71.7525 20.8623C71.7679 20.8889 71.7755 20.9193 71.7744 20.95C71.7477 21.1187 71.6974 21.2829 71.6249 21.4375C71.5376 21.675 71.4628 21.8625 71.4255 22L71.0266 23.25C70.9534 23.4304 70.9031 23.6194 70.8771 23.8125C70.8749 23.8614 70.8853 23.91 70.9071 23.9537C70.9289 23.9974 70.9615 24.0349 71.0017 24.0625C71.1531 24.1197 71.3135 24.1493 71.4753 24.15L71.3133 24.7125H71.1762C70.8826 24.7508 70.5841 24.7208 70.3038 24.625C70.2193 24.581 70.1468 24.5171 70.0925 24.4386C70.0382 24.3602 70.0038 24.2697 69.9922 24.175C69.8411 24.3485 69.6594 24.4925 69.4563 24.6C69.2704 24.6955 69.0666 24.7508 68.8581 24.7625ZM71.6623 19.5C71.5959 19.5024 71.5298 19.4914 71.4677 19.4678C71.4056 19.4442 71.3489 19.4084 71.3008 19.3625C71.2541 19.3124 71.2179 19.2534 71.1944 19.1889C71.1708 19.1245 71.1604 19.056 71.1637 18.9875C71.1599 18.7932 71.2314 18.605 71.3631 18.4625C71.4198 18.3953 71.4904 18.3415 71.5701 18.3048C71.6498 18.268 71.7366 18.2493 71.8243 18.25C71.8917 18.2477 71.9588 18.2599 72.0211 18.2858C72.0835 18.3117 72.1396 18.3506 72.1857 18.4C72.2359 18.4481 72.2752 18.5065 72.301 18.5712C72.3268 18.6359 72.3385 18.7054 72.3353 18.775C72.3406 18.9635 72.2737 19.1469 72.1483 19.2875C72.0868 19.3553 72.0117 19.4093 71.9279 19.4459C71.8442 19.4825 71.7536 19.5009 71.6623 19.5Z" fill="black"/>
<path d="M72.2729 24.35C72.153 24.4742 72.0087 24.5721 71.8492 24.6375C71.6757 24.7127 71.4897 24.7551 71.3008 24.7625L71.4504 24.2C71.5983 24.1937 71.7428 24.1533 71.8725 24.0817C72.0022 24.0101 72.1137 23.9094 72.1982 23.7875C72.4533 23.4067 72.639 22.9834 72.7465 22.5375C72.8338 22.2625 72.9085 21.925 72.9958 21.5375C73.083 21.15 73.2824 20.7625 73.5317 20.7625C73.7008 20.7361 73.8725 20.7319 74.0427 20.75C74.1299 20.75 74.1798 20.825 74.1798 20.8875C74.1075 21.1303 74.0201 21.3682 73.9181 21.6C73.756 22.025 73.594 22.4375 73.4694 22.85C73.809 22.2801 74.2288 21.7623 74.7157 21.3125C74.9956 21.0228 75.3736 20.8489 75.775 20.825C75.9206 20.8183 76.0632 20.8675 76.1739 20.9625C76.2244 21.013 76.2638 21.0736 76.2895 21.1404C76.3153 21.2071 76.3268 21.2785 76.3234 21.35C76.2264 21.8649 76.063 22.3649 75.8374 22.8375L75.7376 23.1C75.6689 23.2529 75.6147 23.4119 75.5756 23.575C75.5647 23.6789 75.5647 23.7836 75.5756 23.8875C75.5724 23.9299 75.5812 23.9724 75.601 24.01C75.6209 24.0476 75.651 24.0788 75.6878 24.1C75.8356 24.1546 75.9914 24.1842 76.1489 24.1875L75.9994 24.75H75.8997C75.5568 24.7736 75.2137 24.7091 74.9026 24.5625C74.8005 24.5066 74.716 24.4231 74.6587 24.3214C74.6014 24.2198 74.5737 24.1041 74.5786 23.9875C74.5909 23.7987 74.6329 23.6131 74.7032 23.4375C74.778 23.1875 74.9026 22.875 75.0646 22.4875V22.4125C75.1555 22.2289 75.2265 22.0362 75.2765 21.8375C75.289 21.8053 75.289 21.7696 75.2765 21.7375C75.2405 21.7229 75.2003 21.7229 75.1644 21.7375C75.0023 21.7375 74.7531 21.95 74.4041 22.3625C74.0402 22.8296 73.7386 23.3422 73.5068 23.8875C73.5068 24.0125 73.3946 24.15 73.3323 24.325C73.2902 24.4689 73.2008 24.5942 73.0786 24.6804C72.9563 24.7667 72.8085 24.8089 72.6593 24.8H72.4225C72.4019 24.7899 72.3849 24.7737 72.3737 24.7536C72.3626 24.7334 72.3578 24.7104 72.3602 24.6875C72.3552 24.6502 72.3552 24.6123 72.3602 24.575C72.3384 24.4973 72.3092 24.422 72.2729 24.35Z" fill="black"/>
<path d="M75.8249 24.7625L75.9744 24.2C76.2506 24.1842 76.5118 24.0688 76.7098 23.875C76.932 23.5889 77.0855 23.2552 77.1584 22.9L77.5074 21.65H77.1086C77.0676 21.6596 77.0249 21.6596 76.9839 21.65C76.9839 21.65 76.9839 21.65 76.9839 21.5625L77.0463 21.3625C77.0513 21.3383 77.0618 21.3157 77.0769 21.2962C77.0921 21.2767 77.1114 21.2609 77.1335 21.25C77.2115 21.2331 77.2923 21.2331 77.3703 21.25H77.6819L78.0932 19.9C78.0932 19.825 78.0932 19.725 78.1679 19.5875C78.2552 19.2375 78.4297 19.05 78.6789 19.05C78.828 19.0439 78.9766 19.0695 79.1151 19.125C79.1569 19.1358 79.1941 19.1599 79.2211 19.1937C79.248 19.2276 79.2633 19.2692 79.2647 19.3125C79.2464 19.4249 79.2128 19.5342 79.165 19.6375C79.1464 19.7064 79.1213 19.7733 79.0902 19.8375L78.6166 21.25H79.3145C79.355 21.2367 79.3987 21.2367 79.4392 21.25C79.4446 21.2595 79.4475 21.2703 79.4475 21.2813C79.4475 21.2922 79.4446 21.303 79.4392 21.3125V21.3875V21.5875C79.4198 21.6354 79.3846 21.6751 79.3395 21.7C79.2659 21.7191 79.1887 21.7191 79.1151 21.7H78.5044L78.0932 23.05C78.0469 23.1755 78.0135 23.3053 77.9934 23.4375C77.9843 23.5248 77.9843 23.6128 77.9934 23.7C77.992 23.7773 78.0123 23.8535 78.052 23.9198C78.0917 23.9861 78.1491 24.0399 78.2178 24.075C78.4282 24.1761 78.6576 24.2315 78.8908 24.2375L78.7288 24.8H78.6291C78.312 24.8068 77.9961 24.7603 77.6943 24.6625C77.48 24.5989 77.292 24.4673 77.1584 24.2875C76.9835 24.4387 76.7858 24.561 76.5727 24.65C76.3322 24.7324 76.0789 24.7706 75.8249 24.7625Z" fill="black"/>
</g>
<defs>
<clipPath id="clip0_8_10">
<rect width="80" height="29" fill="white"/>
</clipPath>
</defs>
</svg>
