<svg width="180" height="66" viewBox="0 0 180 66" fill="none" xmlns="http://www.w3.org/2000/svg">
<g clip-path="url(#clip0_192_17)">
<path d="M40.8568 29.8125C40.8568 29.8125 39.7071 26.6625 43.8012 22.3875C47.8953 18.1125 63.7389 4.83753 72.3477 6.69378C80.9565 8.55003 72.3477 17.6063 72.3477 18.6188C71.7971 21.8445 70.3123 24.8365 68.0785 27.222C65.8446 29.6075 62.9604 31.2811 59.785 32.0344C51.6249 33.8625 43.2123 32.625 40.8568 29.8125Z" fill="#EA2893"/>
<path d="M35.3326 29.8125C35.3326 29.8125 36.4823 26.6625 32.3882 22.3875C28.2941 18.1125 12.3664 4.75315 3.9539 6.6094C-4.45863 8.46565 3.9539 17.5219 3.9539 18.5344C4.50457 21.7601 5.9893 24.7521 8.22315 27.1376C10.457 29.5231 13.3412 31.1967 16.5166 31.95C24.4524 33.8625 33.1173 32.625 35.3326 29.8125Z" fill="#00AFF0"/>
<path d="M41.6981 32.625C41.6981 32.625 52.9148 35.6906 57.9903 34.7062C63.0659 33.7219 63.8511 44.6906 61.3553 48.5437C58.8596 52.3969 56.8406 58.1063 59.1681 60.5531C61.4956 63 60.8786 64.9125 60.2617 65.25C58.5792 66.15 57.093 61.65 54.8216 58.4156C52.5502 55.1812 42.2028 56.7844 41.6981 50.6812C41.642 45.3656 41.6981 32.625 41.6981 32.625Z" fill="#FFF112"/>
<path d="M34.5194 32.625C34.5194 32.625 23.3027 35.6906 18.1991 34.7062C13.0955 33.7219 12.3664 44.5781 14.8341 48.4313C17.3017 52.2844 19.3768 57.9937 17.0213 60.4406C14.6658 62.8875 15.3388 64.8 15.9277 65.1375C17.6102 66.0375 19.1245 61.5375 21.3678 58.3031C23.6111 55.0687 33.9866 56.6719 34.5194 50.5687C34.5755 45.3656 34.5194 32.625 34.5194 32.625Z" fill="#FFF112"/>
<path d="M38.1929 27.9562H38.0246C36.1507 27.9562 34.6316 29.4799 34.6316 31.3594V50.175C34.6316 52.0545 36.1507 53.5781 38.0246 53.5781H38.1929C40.0668 53.5781 41.5859 52.0545 41.5859 50.175V31.3594C41.5859 29.4799 40.0668 27.9562 38.1929 27.9562Z" fill="#B3B3B3"/>
<path d="M38.1087 24.975C40.0756 24.975 41.67 23.3758 41.67 21.4031C41.67 19.4304 40.0756 17.8312 38.1087 17.8312C36.1419 17.8312 34.5474 19.4304 34.5474 21.4031C34.5474 23.3758 36.1419 24.975 38.1087 24.975Z" fill="#B3B3B3"/>
<path d="M47.5027 0V2.8125L47.3625 3.00937C44.9812 6.95877 42.0966 10.5799 38.7818 13.7812V15.75H37.3797V13.7812C34.1031 10.5658 31.2223 6.96833 28.7989 3.06562V2.86875V0.0562499H30.201V2.53125C32.4616 6.19148 35.1337 9.57929 38.1648 12.6281C41.173 9.56694 43.8087 6.15877 46.0165 2.475V0H47.5027Z" fill="#B3B3B3"/>
<path d="M83.957 11.925C83.7285 11.1021 83.3161 10.3423 82.7512 9.70311C82.5206 9.47065 82.2447 9.28826 81.9408 9.1673C81.6369 9.04634 81.3114 8.98939 80.9846 8.99999H79.8629V5.59686H94.2203V8.99999H92.8743C92.4073 8.95906 91.9371 9.02642 91.5002 9.19686C91.3785 9.26653 91.2794 9.3699 91.2148 9.4946C91.1501 9.6193 91.1227 9.76005 91.1357 9.89999C91.0996 10.1989 91.0996 10.5011 91.1357 10.8L94.9213 23.0906L99.0154 10.7719C99.0154 10.575 99.0154 10.4062 99.0154 10.2656C99.0269 10.144 99.0269 10.0216 99.0154 9.89999C99.0322 9.75962 99.0064 9.61744 98.9413 9.49201C98.8763 9.36658 98.7751 9.26372 98.6509 9.19686C98.1956 9.02175 97.7062 8.95438 97.2208 8.99999H96.015V5.59686H107.232V8.99999H106.362C105.756 8.96931 105.155 9.1371 104.652 9.47811C104.144 9.98661 103.794 10.6311 103.642 11.3344L97.5853 29.6437H89.5093L83.957 11.925Z" fill="white"/>
<path d="M116.121 29.6437V26.2406H117.186C117.753 26.2866 118.323 26.2294 118.869 26.0719C118.971 26.0209 119.056 25.9396 119.111 25.8391C119.166 25.7385 119.189 25.6235 119.177 25.5094C119.191 25.3315 119.191 25.1528 119.177 24.975C119.191 24.8065 119.191 24.6372 119.177 24.4687L118.336 21.9094H111.887L111.129 24.2156C111.02 24.4816 110.926 24.754 110.849 25.0312C110.837 25.2091 110.837 25.3877 110.849 25.5656C110.849 25.7625 110.849 25.9312 111.298 26.0437C111.689 26.2016 112.111 26.2689 112.532 26.2406H113.317V29.6437H102.633V26.2406H103.53C104.093 26.252 104.637 26.0397 105.044 25.65C105.551 25.1211 105.917 24.4732 106.11 23.7656L112.419 5.59686H121.084L126.693 23.6812C126.857 24.4772 127.213 25.2208 127.73 25.8469C128.176 26.1452 128.71 26.284 129.244 26.2406H130.506V29.6437H116.121ZM117.018 18.3937L114.719 11.1937L112.672 18.5625L117.018 18.3937Z" fill="white"/>
<path d="M130.871 20.7844H134.32C134.775 22.4968 135.756 24.0221 137.124 25.1438C138.447 26.1931 140.093 26.7497 141.779 26.7188C142.7 26.7586 143.61 26.5131 144.387 26.0156C144.686 25.8204 144.932 25.5537 145.104 25.2396C145.275 24.9255 145.366 24.5737 145.368 24.2156C145.368 23.0344 143.938 22.0781 141.134 21.4031C140.209 21.1781 139.48 20.9531 138.975 20.7844C137.264 20.2781 135.946 19.8563 135.049 19.4906C134.344 19.2433 133.674 18.9028 133.058 18.4781C132.165 17.8458 131.427 17.0188 130.899 16.0594C130.389 15.0992 130.128 14.0254 130.142 12.9375C130.122 11.8107 130.365 10.6948 130.852 9.67905C131.339 8.66331 132.056 7.77584 132.946 7.08751C134.972 5.52363 137.487 4.7358 140.04 4.86563C141.427 4.86797 142.808 5.01883 144.163 5.31563C145.461 5.62632 146.721 6.07903 147.92 6.66563L148.565 5.45626H152.014V13.8938H147.976C147.706 12.4075 146.909 11.0692 145.733 10.125C144.471 9.18484 142.93 8.69927 141.358 8.74689C140.426 8.7151 139.506 8.97027 138.723 9.47813C138.413 9.66678 138.156 9.93053 137.974 10.2451C137.793 10.5596 137.693 10.9149 137.685 11.2781C137.685 12.375 139.003 13.1625 141.667 13.725L143.181 14.0625C145.976 14.5221 148.631 15.6085 150.949 17.2406C151.688 17.8715 152.274 18.6629 152.662 19.5546C153.051 20.4463 153.232 21.4151 153.192 22.3875C153.221 23.5118 152.981 24.6267 152.494 25.6394C152.006 26.652 151.284 27.5332 150.388 28.2094C148.233 29.7421 145.623 30.4958 142.985 30.3469C141.622 30.338 140.265 30.1585 138.947 29.8125C137.583 29.4909 136.264 28.9996 135.021 28.35L134.152 29.7H130.871V20.7844Z" fill="white"/>
<path d="M179.832 5.59686V14.5687H176.046C175.876 13.608 175.613 12.6661 175.261 11.7562C175.042 11.1641 174.698 10.6267 174.251 10.1812C173.794 9.71571 173.224 9.37664 172.597 9.19686C171.545 8.98829 170.47 8.92208 169.4 8.99999H165.671V15.5812H166.596C167.009 15.627 167.427 15.5801 167.82 15.4439C168.213 15.3077 168.571 15.0856 168.867 14.7937C169.386 13.9535 169.613 12.9645 169.512 11.9812V11.7844H172.513V22.7531H169.4C169.492 21.6266 169.269 20.4968 168.755 19.4906C168.459 19.2076 168.105 18.993 167.717 18.8618C167.33 18.7306 166.918 18.6861 166.512 18.7312H165.558V26.2406H169.793C170.932 26.2884 172.073 26.1844 173.186 25.9312C173.758 25.7554 174.259 25.4007 174.616 24.9187C175.03 24.2807 175.333 23.577 175.513 22.8375C175.736 21.8098 175.877 20.7658 175.934 19.7156H179.86V29.6437H154.622V26.2406H155.828C156.367 26.2866 156.909 26.1896 157.398 25.9594C157.651 25.7625 157.763 25.2281 157.763 24.3562V11.0531C157.841 10.4507 157.723 9.8389 157.426 9.30936C156.928 9.04443 156.361 8.93661 155.8 8.99999H154.622V5.59686H179.832Z" fill="white"/>
<path d="M139.62 55.125C139.17 56.4195 138.814 57.7448 138.554 59.0906V59.5125C138.54 59.6531 138.491 59.7879 138.413 59.9055C138.335 60.0231 138.229 60.1199 138.106 60.1875C137.71 60.3265 137.29 60.3839 136.872 60.3562C136.743 60.3853 136.608 60.3853 136.479 60.3562C136.432 60.3396 136.391 60.3094 136.361 60.2693C136.331 60.2293 136.314 60.1812 136.311 60.1312C136.434 59.4552 136.632 58.7949 136.9 58.1625C137.292 57.0937 137.601 56.1375 137.825 55.35C137.6 55.497 137.354 55.6107 137.096 55.6875L136.227 55.8281L136.591 54.5625C137.825 54.5625 138.76 52.9594 139.396 49.7531V49.5281L139.732 47.8406C140.04 46.2375 140.629 45.45 141.499 45.45C141.702 45.4098 141.912 45.4098 142.116 45.45C142.182 45.4778 142.239 45.5246 142.279 45.5847C142.319 45.6447 142.34 45.7153 142.34 45.7875C142.167 46.5029 141.952 47.2073 141.695 47.8969C141.358 48.9375 141.078 49.8094 140.882 50.4844C141.435 49.4516 142.134 48.5043 142.957 47.6719C143.465 47.1657 144.148 46.8739 144.864 46.8562C145.163 46.8483 145.46 46.9044 145.735 47.0208C146.011 47.1372 146.259 47.3112 146.462 47.5312C146.892 48.0177 147.113 48.6542 147.079 49.3031C147.068 50.172 146.836 51.0238 146.406 51.7781C145.874 52.6931 145.191 53.5109 144.387 54.1969C144.685 54.3144 144.996 54.3992 145.312 54.45C145.695 54.48 146.079 54.48 146.462 54.45L146.098 55.7156H145.845C145.373 55.7188 144.901 55.6621 144.443 55.5469C144.019 55.4514 143.612 55.2901 143.237 55.0687C142.91 55.2153 142.573 55.3375 142.228 55.4344C141.888 55.5207 141.54 55.5679 141.19 55.575C140.939 55.6159 140.684 55.6159 140.433 55.575C140.145 55.458 139.872 55.307 139.62 55.125ZM140.181 53.6625C140.41 53.537 140.655 53.4424 140.91 53.3812H141.611C141.816 53.3538 142.023 53.3538 142.228 53.3812C142.477 53.4344 142.721 53.5097 142.957 53.6062C143.564 53.0679 144.076 52.4309 144.471 51.7219C144.802 51.1276 144.985 50.4618 145.004 49.7812C145.022 49.4526 144.934 49.1269 144.752 48.8531C144.677 48.7355 144.573 48.6396 144.45 48.5754C144.327 48.5112 144.189 48.4809 144.05 48.4875C143.49 48.4875 142.845 48.9656 142.144 49.8937C141.32 51.0539 140.66 52.322 140.181 53.6625Z" fill="white"/>
<path d="M146.069 55.7156L146.434 54.45C147.327 54.2177 148.093 53.6417 148.565 52.8469C149.477 51.3299 150.22 49.7171 150.781 48.0375C150.643 47.9037 150.537 47.7402 150.472 47.5594C150.427 47.3651 150.427 47.163 150.472 46.9687C150.449 46.5612 150.579 46.1598 150.837 45.8437C150.945 45.7018 151.086 45.5873 151.246 45.5092C151.407 45.4311 151.583 45.3915 151.762 45.3937C151.91 45.3814 152.058 45.4 152.198 45.4484C152.338 45.4968 152.467 45.574 152.575 45.675C152.681 45.7694 152.764 45.887 152.818 46.0186C152.871 46.1503 152.894 46.2925 152.884 46.4344C152.911 46.5737 152.911 46.7169 152.884 46.8562C152.906 46.977 152.906 47.101 152.884 47.2219L154.117 47.9531C155.043 48.4594 155.492 48.9375 155.492 49.4156C155.379 50.1843 155.133 50.927 154.762 51.6094C154.385 52.2711 154.129 52.9949 154.005 53.7469C153.998 53.8423 154.018 53.9379 154.062 54.0226C154.107 54.1072 154.175 54.1774 154.258 54.225C154.693 54.3647 155.147 54.4405 155.604 54.45L155.239 55.7156H154.959C154.126 55.7679 153.293 55.6334 152.519 55.3219C152.287 55.2062 152.094 55.0244 151.964 54.7993C151.835 54.5742 151.774 54.3157 151.79 54.0562C151.868 53.2482 152.106 52.464 152.491 51.75C152.825 51.134 153.061 50.4699 153.192 49.7812C153.134 49.6733 153.042 49.5874 152.931 49.5366C152.819 49.4858 152.695 49.473 152.575 49.5C152.334 49.272 152.06 49.0824 151.762 48.9375C151.212 50.8099 150.339 52.571 149.182 54.1406C148.795 54.5994 148.32 54.9753 147.786 55.2459C147.251 55.5165 146.667 55.6762 146.069 55.7156Z" fill="white"/>
<path d="M154.931 55.7156L155.295 54.45C155.686 54.4171 156.063 54.2866 156.391 54.0705C156.719 53.8544 156.988 53.5594 157.174 53.2125C157.869 51.9949 158.371 50.6759 158.66 49.3031C158.66 49.0219 158.66 48.6562 158.885 48.2062C158.947 47.7751 159.176 47.3859 159.523 47.1228C159.869 46.8597 160.305 46.7437 160.735 46.8C160.921 46.7643 161.111 46.7643 161.296 46.8C161.357 46.8319 161.408 46.8805 161.443 46.9402C161.478 47 161.495 47.0684 161.492 47.1375C161.432 47.5172 161.319 47.8865 161.156 48.2344C160.96 48.7687 160.791 49.1906 160.707 49.5L159.81 52.3125C159.645 52.7185 159.532 53.1437 159.473 53.5781C159.469 53.6881 159.492 53.7974 159.541 53.8958C159.59 53.9943 159.663 54.0785 159.754 54.1406C160.095 54.2694 160.455 54.336 160.819 54.3375L160.455 55.6031H160.146C159.486 55.6892 158.814 55.6219 158.184 55.4062C157.993 55.3073 157.83 55.1634 157.708 54.987C157.586 54.8105 157.509 54.6069 157.482 54.3937C157.143 54.7841 156.734 55.1082 156.277 55.35C155.858 55.5648 155.4 55.6893 154.931 55.7156ZM161.24 43.875C161.091 43.8803 160.942 43.8557 160.802 43.8026C160.663 43.7494 160.535 43.6689 160.427 43.5656C160.322 43.4528 160.24 43.3201 160.187 43.1751C160.134 43.0302 160.111 42.876 160.118 42.7219C160.11 42.2847 160.271 41.8612 160.567 41.5406C160.694 41.3895 160.853 41.2684 161.033 41.1857C161.212 41.1031 161.407 41.061 161.605 41.0625C161.756 41.0574 161.907 41.0849 162.048 41.1431C162.188 41.2013 162.314 41.2889 162.418 41.4C162.531 41.5083 162.619 41.6397 162.677 41.7853C162.735 41.9308 162.762 42.0871 162.754 42.2437C162.766 42.6679 162.616 43.0806 162.334 43.3969C162.195 43.5494 162.026 43.6708 161.838 43.7532C161.649 43.8356 161.446 43.8771 161.24 43.875Z" fill="white"/>
<path d="M162.614 54.7875C162.344 55.0669 162.02 55.2872 161.661 55.4344C161.27 55.6036 160.852 55.699 160.427 55.7156L160.763 54.45C161.096 54.4359 161.421 54.3448 161.713 54.1838C162.005 54.0228 162.256 53.7963 162.446 53.5219C163.02 52.665 163.438 51.7127 163.68 50.7094C163.876 50.0906 164.044 49.3312 164.241 48.4594C164.437 47.5875 164.885 46.7156 165.446 46.7156C165.827 46.6562 166.213 46.6467 166.596 46.6875C166.792 46.6875 166.904 46.8562 166.904 46.9969C166.742 47.5431 166.545 48.0785 166.316 48.6C165.951 49.5562 165.587 50.4844 165.306 51.4125C166.07 50.1303 167.015 48.9652 168.11 47.9531C168.74 47.3013 169.59 46.91 170.494 46.8562C170.821 46.8413 171.142 46.9519 171.391 47.1656C171.505 47.2793 171.594 47.4156 171.651 47.5658C171.709 47.716 171.735 47.8767 171.728 48.0375C171.509 49.196 171.142 50.3211 170.634 51.3844L170.41 51.975C170.255 52.319 170.133 52.6768 170.045 53.0437C170.021 53.2775 170.021 53.5131 170.045 53.7469C170.038 53.8423 170.058 53.9379 170.102 54.0226C170.147 54.1072 170.215 54.1774 170.298 54.225C170.63 54.3478 170.981 54.4144 171.335 54.4219L170.999 55.6875H170.774C170.003 55.7406 169.231 55.5954 168.531 55.2656C168.301 55.1398 168.111 54.9519 167.982 54.7232C167.853 54.4946 167.791 54.2343 167.802 53.9719C167.829 53.5471 167.924 53.1294 168.082 52.7344C168.25 52.1719 168.531 51.4687 168.895 50.5969V50.4281C169.1 50.0151 169.26 49.5814 169.372 49.1344C169.4 49.062 169.4 48.9817 169.372 48.9094C169.291 48.8765 169.201 48.8765 169.12 48.9094C168.755 48.9094 168.194 49.3875 167.409 50.3156C166.591 51.3666 165.912 52.52 165.39 53.7469C165.39 54.0281 165.138 54.3375 164.998 54.7312C164.903 55.0549 164.702 55.3369 164.427 55.531C164.152 55.7251 163.819 55.82 163.483 55.8H162.951C162.904 55.7772 162.866 55.7408 162.841 55.6955C162.816 55.6503 162.805 55.5984 162.81 55.5469C162.799 55.4629 162.799 55.3777 162.81 55.2937C162.761 55.119 162.696 54.9495 162.614 54.7875Z" fill="white"/>
<path d="M170.606 55.7156L170.943 54.45C171.564 54.4144 172.151 54.1547 172.597 53.7188C173.097 53.0749 173.442 52.3243 173.606 51.525L174.392 48.7125H173.494C173.402 48.7341 173.306 48.7341 173.214 48.7125C173.214 48.7125 173.214 48.7125 173.214 48.5156L173.354 48.0656C173.366 48.0113 173.389 47.9602 173.423 47.9163C173.457 47.8725 173.501 47.837 173.55 47.8125C173.726 47.7745 173.908 47.7745 174.083 47.8125H174.784L175.71 44.775C175.71 44.6063 175.71 44.3813 175.878 44.0719C176.074 43.2844 176.467 42.8625 177.028 42.8625C177.363 42.8488 177.697 42.9063 178.009 43.0313C178.103 43.0556 178.187 43.1098 178.247 43.1859C178.308 43.262 178.343 43.3558 178.346 43.4531C178.304 43.706 178.229 43.952 178.121 44.1844C178.079 44.3393 178.023 44.49 177.953 44.6344L176.887 47.8125H178.458C178.549 47.7825 178.647 47.7825 178.738 47.8125C178.75 47.8339 178.757 47.8581 178.757 47.8828C178.757 47.9075 178.75 47.9318 178.738 47.9531V48.1219V48.5719C178.695 48.6796 178.615 48.769 178.514 48.825C178.348 48.8679 178.175 48.8679 178.009 48.825H176.635L175.71 51.8625C175.606 52.1448 175.53 52.4369 175.485 52.7344C175.465 52.9307 175.465 53.1287 175.485 53.325C175.482 53.499 175.528 53.6703 175.617 53.8195C175.706 53.9687 175.836 54.0897 175.99 54.1688C176.463 54.3962 176.98 54.5208 177.504 54.5344L177.14 55.8H176.915C176.202 55.8153 175.491 55.7107 174.812 55.4906C174.33 55.3474 173.907 55.0514 173.606 54.6469C173.213 54.987 172.768 55.2623 172.289 55.4625C171.747 55.648 171.177 55.7337 170.606 55.7156Z" fill="white"/>
</g>
<defs>
<clipPath id="clip0_192_17">
<rect width="180" height="65.25" fill="white"/>
</clipPath>
</defs>
</svg>
